<?xml version="1.0" encoding="UTF-8"?>
<!DOCTYPE svg PUBLIC "-//W3C//DTD SVG 1.1//EN" "http://www.w3.org/Graphics/SVG/1.1/DTD/svg11.dtd">
<svg xmlns="http://www.w3.org/2000/svg" version="1.1" width="3000px" height="750px" style="shape-rendering:geometricPrecision; text-rendering:geometricPrecision; image-rendering:optimizeQuality; fill-rule:evenodd; clip-rule:evenodd" xmlns:xlink="http://www.w3.org/1999/xlink">
<g><path style="opacity:0.985" fill="#ffc800" d="M 346.5,-0.5 C 361.833,-0.5 377.167,-0.5 392.5,-0.5C 496.359,5.8331 577.859,51.4998 637,136.5C 665.801,181.571 681.801,230.904 685,284.5C 691.009,353.13 677.342,417.464 644,477.5C 594.7,556.064 524.2,603.897 432.5,621C 483.928,634.273 535.594,646.773 587.5,658.5C 587.5,688.167 587.5,717.833 587.5,747.5C 515.079,730.782 442.746,713.615 370.5,696C 369.506,672.908 369.173,649.742 369.5,626.5C 247.436,625.714 154.936,573.714 92,470.5C 59.7708,408.246 47.7708,342.246 56,272.5C 67.3208,174.97 113.821,99.4698 195.5,46C 242.046,18.0952 292.379,2.59515 346.5,-0.5 Z M 349.5,85.5 C 429.481,79.6007 495.647,106.601 548,166.5C 583.797,212.905 600.13,265.571 597,324.5C 591.583,415.551 548.083,481.051 466.5,521C 401.356,547.231 336.356,546.898 271.5,520C 187.498,476.736 144.498,407.569 142.5,312.5C 143.778,222.069 183.444,154.569 261.5,110C 289.382,96.1991 318.716,88.0324 349.5,85.5 Z"/></g>
<g><path style="opacity:0.964" fill="#ffc800" d="M 1339.5,-0.5 C 1340.83,-0.5 1342.17,-0.5 1343.5,-0.5C 1365.8,22.2986 1388.3,44.9653 1411,67.5C 1411.67,68.8333 1411.67,70.1667 1411,71.5C 1388.26,94.7394 1365.1,117.406 1341.5,139.5C 1317.9,117.406 1294.74,94.7394 1272,71.5C 1271.33,70.1667 1271.33,68.8333 1272,67.5C 1294.7,44.9653 1317.2,22.2986 1339.5,-0.5 Z"/></g>
<g><path style="opacity:0.991" fill="#ffc800" d="M 2044.5,60.5 C 2046.17,60.5 2047.83,60.5 2049.5,60.5C 2049.5,100.833 2049.5,141.167 2049.5,181.5C 2084.5,181.5 2119.5,181.5 2154.5,181.5C 2154.5,209.5 2154.5,237.5 2154.5,265.5C 2119.59,265.171 2084.76,265.504 2050,266.5C 2049.5,383.5 2049.33,500.5 2049.5,617.5C 2020.17,617.5 1990.83,617.5 1961.5,617.5C 1961.67,500.5 1961.5,383.5 1961,266.5C 1929.24,265.504 1897.41,265.171 1865.5,265.5C 1865.5,237.5 1865.5,209.5 1865.5,181.5C 1897.5,181.5 1929.5,181.5 1961.5,181.5C 1961.17,149.493 1961.5,117.493 1962.5,85.5C 1990.04,77.4546 2017.37,69.1213 2044.5,60.5 Z"/></g>
<g><path style="opacity:0.985" fill="#ffc800" d="M 2399.5,172.5 C 2493.88,170.42 2564.71,209.753 2612,290.5C 2634.63,337.863 2641.8,387.529 2633.5,439.5C 2513.17,439.333 2392.83,439.5 2272.5,440C 2287.57,488.737 2319.57,520.404 2368.5,535C 2407.51,544.899 2444.84,540.566 2480.5,522C 2497.7,511.803 2512.03,498.47 2523.5,482C 2556.16,481.5 2588.83,481.333 2621.5,481.5C 2599.88,541.627 2559.54,584.127 2500.5,609C 2438.97,631.902 2377.3,632.235 2315.5,610C 2233.52,574.248 2188.02,511.748 2179,422.5C 2170.78,328.129 2205.94,255.295 2284.5,204C 2320.31,183.966 2358.64,173.466 2399.5,172.5 Z M 2405.5,258.5 C 2454.59,258.961 2493.76,278.628 2523,317.5C 2531.25,330.503 2537.75,344.336 2542.5,359C 2452.5,359.667 2362.5,359.667 2272.5,359C 2285.98,314.183 2314.65,283.517 2358.5,267C 2373.92,262.012 2389.59,259.179 2405.5,258.5 Z"/></g>
<g><path style="opacity:0.983" fill="#ffc800" d="M 2939.5,172.5 C 2942.78,172.216 2945.94,172.549 2949,173.5C 2949.5,202.831 2949.67,232.165 2949.5,261.5C 2918.81,260.67 2889.81,267.17 2862.5,281C 2837.34,296.846 2821.5,319.346 2815,348.5C 2813.11,357.08 2811.77,365.747 2811,374.5C 2810.5,455.499 2810.33,536.499 2810.5,617.5C 2780.83,617.5 2751.17,617.5 2721.5,617.5C 2721.5,472.167 2721.5,326.833 2721.5,181.5C 2751.17,181.5 2780.83,181.5 2810.5,181.5C 2810.33,203.503 2810.5,225.503 2811,247.5C 2832.19,207.955 2865.03,184.122 2909.5,176C 2919.61,174.5 2929.61,173.333 2939.5,172.5 Z"/></g>
<g><path style="opacity:0.987" fill="#ffc800" d="M 767.5,181.5 C 797.167,181.5 826.833,181.5 856.5,181.5C 856.333,266.501 856.5,351.501 857,436.5C 861.264,482.062 884.097,514.229 925.5,533C 955.103,542.708 985.103,544.041 1015.5,537C 1065.75,520.389 1092.92,485.555 1097,432.5C 1097.5,348.834 1097.67,265.167 1097.5,181.5C 1126.83,181.5 1156.17,181.5 1185.5,181.5C 1185.5,326.833 1185.5,472.167 1185.5,617.5C 1156.17,617.5 1126.83,617.5 1097.5,617.5C 1097.67,599.497 1097.5,581.497 1097,563.5C 1069.77,596.332 1034.94,616.165 992.5,623C 945.063,631.272 900.063,624.272 857.5,602C 805.316,568.52 775.816,520.687 769,458.5C 767.53,366.183 767.03,273.85 767.5,181.5 Z"/></g>
<g><path style="opacity:0.992" fill="#ffc800" d="M 1297.5,181.5 C 1326.83,181.5 1356.17,181.5 1385.5,181.5C 1385.5,326.833 1385.5,472.167 1385.5,617.5C 1356.17,617.5 1326.83,617.5 1297.5,617.5C 1297.5,472.167 1297.5,326.833 1297.5,181.5 Z"/></g>
<g><path style="opacity:0.986" fill="#ffc800" d="M 1488.5,181.5 C 1598.83,181.5 1709.17,181.5 1819.5,181.5C 1819.67,205.836 1819.5,230.169 1819,254.5C 1744.79,347.045 1670.95,439.879 1597.5,533C 1674.5,533.5 1751.5,533.667 1828.5,533.5C 1828.5,561.5 1828.5,589.5 1828.5,617.5C 1712.17,617.5 1595.83,617.5 1479.5,617.5C 1479.02,592.744 1479.52,568.077 1481,543.5C 1554.88,451.288 1628.38,358.788 1701.5,266C 1630.5,265.5 1559.5,265.333 1488.5,265.5C 1488.5,237.5 1488.5,209.5 1488.5,181.5 Z"/></g>
</svg>
